HIERARCHY
ROOT Hips
{
	OFFSET 0.00 0.00 0.00
	CHANNELS 6 Xposition Yposition Zposition Xrotation Yrotation Zrotation
	JOINT Spine
	{
		OFFSET 0.00000 3.94796 -0.89174
		CHANNELS 3 Xrotation Yrotation Zrotation
		JOINT Spine1
		{
			OFFSET 0.00000 4.08280 -0.71991
			CHANNELS 3 Xrotation Yrotation Zrotation
			JOINT Spine2
			{
				OFFSET 0.00000 4.13001 -0.36133
				CHANNELS 3 Xrotation Yrotation Zrotation
				JOINT Spine3
				{
					OFFSET 0.00000 4.14578 0.00000
					CHANNELS 3 Xrotation Yrotation Zrotation
					JOINT Neck
					{
						OFFSET 0.00000 5.33029 0.53303
						CHANNELS 3 Xrotation Yrotation Zrotation
						JOINT Neck1
						{
							OFFSET 0.00000 1.81100 0.15844
							CHANNELS 3 Xrotation Yrotation Zrotation
							JOINT Head
							{
								OFFSET 0.00000 1.79030 0.31568
								CHANNELS 3 Xrotation Yrotation Zrotation
								End Site
								{
									OFFSET 0.00000 3.82980 0.00000
								}
							}
						}
					}
					JOINT RightShoulder
					{
						OFFSET 0.00000 3.80735 2.52696
						CHANNELS 3 Zrotation Yrotation Xrotation
						JOINT RightArm
						{
							OFFSET -7.72343 0.00000 0.00000
							CHANNELS 3 Xrotation Yrotation Zrotation
							JOINT RightForeArm
							{
								OFFSET -11.00981 0.00000 0.00000
								CHANNELS 3 Yrotation Zrotation Xrotation
								JOINT RightHand
								{
									OFFSET -9.51589 0.00000 0.00000
									CHANNELS 3 Xrotation Yrotation Zrotation
									JOINT RightHandMiddle1
									{
										OFFSET -3.60596 0.00000 0.00000
										CHANNELS 3 Xrotation Yrotation Zrotation
										JOINT RightHandMiddle2
										{
											OFFSET -1.90694 0.00000 0.00000
											CHANNELS 3 Xrotation Yrotation Zrotation
											JOINT RightHandMiddle3
											{
												OFFSET -1.23919 0.00000 0.00000
												CHANNELS 3 Xrotation Yrotation Zrotation
												End Site
												{
													OFFSET -0.74014 0.00000 0.00000
												}
											}
										}
									}
									JOINT RightHandRing
									{
										OFFSET -0.09843 -0.09842 -0.35204
										CHANNELS 3 Yrotation Xrotation Zrotation
										JOINT RightHandRing1
										{
											OFFSET -3.17392 0.00000 -0.28643
											CHANNELS 3 Xrotation Yrotation Zrotation
											JOINT RightHandRing2
											{
												OFFSET -1.77040 0.00000 -0.15977
												CHANNELS 3 Xrotation Yrotation Zrotation
												JOINT RightHandRing3
												{
													OFFSET -1.21212 0.00000 -0.10939
													CHANNELS 3 Xrotation Yrotation Zrotation
													End Site
													{
														OFFSET -0.73291 0.00000 -0.06614
													}
												}
											}
										}
										JOINT RightHandPinky
										{
											OFFSET -0.06639 -0.09842 -0.35946
											CHANNELS 3 Yrotation Xrotation Zrotation
											JOINT RightHandPinky1
											{
												OFFSET -2.62298 0.00000 -0.58655
												CHANNELS 3 Xrotation Yrotation Zrotation
												JOINT RightHandPinky2
												{
													OFFSET -1.41572 0.00000 -0.31658
													CHANNELS 3 Xrotation Yrotation Zrotation
													JOINT RightHandPinky3
													{
														OFFSET -0.90934 0.00000 -0.20335
														CHANNELS 3 Xrotation Yrotation Zrotation
														End Site
														{
															OFFSET -0.66252 0.00000 -0.14815
														}
													}
												}
											}
										}
									}
									JOINT RightHandIndex
									{
										OFFSET -0.09843 -0.09842 0.35204
										CHANNELS 3 Yrotation Xrotation Zrotation
										JOINT RightHandIndex1
										{
											OFFSET -3.48113 0.00000 0.31415
											CHANNELS 3 Xrotation Yrotation Zrotation
											JOINT RightHandIndex2
											{
												OFFSET -1.84595 0.00000 0.16659
												CHANNELS 3 Xrotation Yrotation Zrotation
												JOINT RightHandIndex3
												{
													OFFSET -1.10409 0.00000 0.09964
													CHANNELS 3 Xrotation Yrotation Zrotation
													End Site
													{
														OFFSET -0.67021 0.00000 0.06048
													}
												}
											}
										}
										JOINT RightHandThumb1
										{
											OFFSET -0.06639 -0.29527 0.35946
											CHANNELS 3 Yrotation Xrotation Zrotation
											JOINT RightHandThumb2
											{
												OFFSET -2.16842 0.00000 0.79596
												CHANNELS 3 Xrotation Yrotation Zrotation
												JOINT RightHandThumb3
												{
													OFFSET -1.43675 0.00000 0.52739
													CHANNELS 3 Xrotation Yrotation Zrotation
													End Site
													{
														OFFSET -0.86532 0.00000 0.31763
													}
												}
											}
										}
									}
								}
							}
						}
					}
					JOINT LeftShoulder
					{
						OFFSET 0.00000 3.80735 2.52696
						CHANNELS 3 Zrotation Yrotation Xrotation
						JOINT LeftArm
						{
							OFFSET 7.72343 0.00000 0.00000
							CHANNELS 3 Xrotation Yrotation Zrotation
							JOINT LeftForeArm
							{
								OFFSET 11.00981 0.00000 0.00000
								CHANNELS 3 Yrotation Zrotation Xrotation
								JOINT LeftHand
								{
									OFFSET 9.51589 0.00000 0.00000
									CHANNELS 3 Xrotation Yrotation Zrotation
									JOINT LeftHandMiddle1
									{
										OFFSET 3.57604 0.00000 0.00000
										CHANNELS 3 Xrotation Yrotation Zrotation
										JOINT LeftHandMiddle2
										{
											OFFSET 1.89144 0.00000 0.00000
											CHANNELS 3 Xrotation Yrotation Zrotation
											JOINT LeftHandMiddle3
											{
												OFFSET 1.23267 0.00000 0.00000
												CHANNELS 3 Xrotation Yrotation Zrotation
												End Site
												{
													OFFSET 0.73127 0.00000 0.00000
												}
											}
										}
									}
									JOINT LeftHandRing
									{
										OFFSET 0.09843 -0.09842 -0.36794
										CHANNELS 3 Yrotation Xrotation Zrotation
										JOINT LeftHandRing1
										{
											OFFSET 3.14618 0.00000 -0.28392
											CHANNELS 3 Xrotation Yrotation Zrotation
											JOINT LeftHandRing2
											{
												OFFSET 1.75353 0.00000 -0.15824
												CHANNELS 3 Xrotation Yrotation Zrotation
												JOINT LeftHandRing3
												{
													OFFSET 1.20401 0.00000 -0.10865
													CHANNELS 3 Xrotation Yrotation Zrotation
													End Site
													{
														OFFSET 0.72413 0.00000 -0.06535
													}
												}
											}
										}
										JOINT LeftHandPinky
										{
											OFFSET 0.06496 -0.09842 -0.37530
											CHANNELS 3 Yrotation Xrotation Zrotation
											JOINT LeftHandPinky1
											{
												OFFSET 2.59399 0.00000 -0.58007
												CHANNELS 3 Xrotation Yrotation Zrotation
												JOINT LeftHandPinky2
												{
													OFFSET 1.40515 0.00000 -0.31422
													CHANNELS 3 Xrotation Yrotation Zrotation
													JOINT LeftHandPinky3
													{
														OFFSET 0.89940 0.00000 -0.20112
														CHANNELS 3 Xrotation Yrotation Zrotation
														End Site
														{
															OFFSET 0.65459 0.00000 -0.14638
														}
													}
												}
											}
										}
									}
									JOINT LeftHandIndex
									{
										OFFSET 0.09843 -0.09842 0.36794
										CHANNELS 3 Yrotation Xrotation Zrotation
										JOINT LeftHandIndex1
										{
											OFFSET 3.44900 0.00000 0.31125
											CHANNELS 3 Xrotation Yrotation Zrotation
											JOINT LeftHandIndex2
											{
												OFFSET 1.83177 0.00000 0.16531
												CHANNELS 3 Xrotation Yrotation Zrotation
												JOINT LeftHandIndex3
												{
													OFFSET 1.09489 0.00000 0.09881
													CHANNELS 3 Xrotation Yrotation Zrotation
													End Site
													{
														OFFSET 0.66218 0.00000 0.05976
													}
												}
											}
										}
										JOINT LeftHandThumb1
										{
											OFFSET 0.06496 -0.29527 0.37530
											CHANNELS 3 Yrotation Xrotation Zrotation
											JOINT LeftHandThumb2
											{
												OFFSET 2.13802 0.00000 0.78480
												CHANNELS 3 Xrotation Yrotation Zrotation
												JOINT LeftHandThumb3
												{
													OFFSET 1.42769 0.00000 0.52406
													CHANNELS 3 Xrotation Yrotation Zrotation
													End Site
													{
														OFFSET 0.85495 0.00000 0.31383
													}
												}
											}
										}
									}
								}
							}
						}
					}
				}
			}
		}
	}
	JOINT RightUpLeg
	{
		OFFSET -3.21426 0.00000 0.00000
		CHANNELS 3 Xrotation Yrotation Zrotation
		JOINT RightLeg
		{
			OFFSET 0.00000 -15.63926 0.00000
			CHANNELS 3 Xrotation Yrotation Zrotation
			JOINT RightFoot
			{
				OFFSET 0.00000 -16.44907 0.00000
				CHANNELS 3 Xrotation Yrotation Zrotation
				JOINT RightForeFoot
				{
					OFFSET 0.00000 -1.44076 0.00000
					CHANNELS 3 Xrotation Yrotation Zrotation
					End Site
					{
						OFFSET 0.00000 0.00000 8.77592
					}
				}
			}
		}
	}
	JOINT LeftUpLeg
	{
		OFFSET 3.21426 0.00000 0.00000
		CHANNELS 3 Xrotation Yrotation Zrotation
		JOINT LeftLeg
		{
			OFFSET 0.00000 -15.63926 0.00000
			CHANNELS 3 Xrotation Yrotation Zrotation
			JOINT LeftFoot
			{
				OFFSET 0.00000 -16.44907 0.00000
				CHANNELS 3 Xrotation Yrotation Zrotation
				JOINT LeftForeFoot
				{
					OFFSET 0.00000 -1.44076 0.00000
					CHANNELS 3 Xrotation Yrotation Zrotation
					End Site
					{
						OFFSET 0.00000 0.00000 8.74096
					}
				}
			}
		}
	}
}
MOTION
Frames: 4
Frame Time: 0.008333
 1.4926 0.0740 34.6924 -80.2568 3.0516 -178.4063 10.4119 -0.3846 -1.1114 -0.0194 0.2945 -0.6309 -1.7320 2.2515 -0.9169 0.0975 0.5486 0.0195 5.6685 -1.8182 0.1285 -2.8810 -2.1249 2.1810 -0.9028 -0.3366 1.5555 13.5605 -18.3205 -4.3356 17.7608 36.2935 61.9730 27.6621 0.0000 6.1815 -0.9180 -5.4120 -9.6418 3.8277 -8.1293 25.3208 0.0000 -0.0000 33.3886 -0.0000 -0.0000 15.6246 -3.1056 -4.6724 -0.8797 -0.5188 -4.2157 28.7696 -3.0890 -1.0238 36.6650 -1.1440 -0.1281 12.7819 -3.5407 -5.0525 0.1772 -4.9575 -3.0304 26.8589 -5.6890 -1.3309 26.3141 -5.9111 -1.4434 27.4218 7.3029 -3.2058 2.4249 10.8737 -23.1978 21.8783 3.4252 1.2966 41.4565 1.2437 0.1518 13.9169 12.8669 49.0948 17.8321 0.6320 -4.9180 1.2692 2.8749 -4.1921 7.2095 -10.1528 15.6532 -2.7662 10.8645 -31.7747 -69.0007 -25.7634 -0.0000 23.6422 0.2777 6.4320 -2.4773 0.6026 0.8972 -33.8891 -0.0000 0.0000 -16.3617 -0.0000 0.0000 -13.3895 2.9323 -13.5859 -1.9190 -1.7594 2.5035 -33.4375 -2.3350 0.5572 -26.8377 -0.6921 0.0465 -7.6925 2.4553 -5.2261 -1.1867 -5.9827 -0.4550 -24.2378 -5.1424 1.0764 -23.6294 -3.9627 0.6279 -18.0011 -7.5475 -9.7830 -0.3415 11.0721 17.2709 -26.9614 2.2856 -0.5325 -26.2264 0.4294 -0.0179 -4.7634 -8.6140 42.5909 -12.4861 -3.9999 14.2640 8.4712 2.2707 3.4015 -5.7813 18.3093 0.0389 -1.2190 0.7474 -0.0000 0.0000 -11.2146 -9.7293 -5.5849 6.9309 0.0000 -0.0000 18.1499 0.8950 -0.0728 1.0894 0.0000 -0.0000 -10.0124 3.5658 -1.4456 12.9573 -0.0000 -0.0000
 1.4928 0.0702 34.6929 -80.2512 3.0479 -178.4011 10.4126 -0.3828 -1.1109 -0.0175 0.2945 -0.6295 -1.7350 2.2543 -0.9148 0.0961 0.5489 0.0205 5.6717 -1.8105 0.0989 -2.8752 -2.1390 2.2015 -0.9020 -0.3365 1.5523 13.5580 -18.3221 -4.3352 17.7315 36.2831 61.9823 27.5822 0.0000 6.1805 -0.9190 -5.3959 -9.6805 3.8257 -8.1202 25.3339 -0.0000 0.0000 33.4247 0.0000 0.0000 15.6479 -3.1068 -4.6779 -0.8787 -0.5195 -4.2147 28.7754 -3.0929 -1.0266 36.7179 -1.1456 -0.1285 12.7999 -3.5426 -5.0502 0.1775 -4.9613 -3.0286 26.8725 -5.6953 -1.3340 26.3455 -5.9150 -1.4454 27.4416 7.3055 -3.2073 2.4266 10.8850 -23.1877 21.9059 3.4291 1.3000 41.5138 1.2446 0.1520 13.9268 12.8653 49.1236 17.8571 0.6479 -4.9271 1.3064 2.8793 -4.1977 7.2198 -10.1593 15.6483 -2.7672 10.8734 -31.7785 -68.9842 -25.7746 -0.0000 23.6307 0.2770 6.4457 -2.4658 0.6006 0.8933 -33.9145 -0.0000 -0.0000 -16.3728 0.0000 -0.0000 -13.3953 2.9325 -13.5882 -1.9196 -1.7614 2.5032 -33.4638 -2.3359 0.5576 -26.8493 -0.6923 0.0466 -7.6943 2.4536 -5.2261 -1.1869 -5.9892 -0.4521 -24.2657 -5.1434 1.0768 -23.6344 -3.9630 0.6280 -18.0028 -7.5478 -9.7853 -0.3409 11.0820 17.2668 -26.9862 2.2871 -0.5332 -26.2445 0.4296 -0.0179 -4.7655 -8.6124 42.6050 -12.4892 -3.9954 14.2651 8.4638 2.2704 3.4011 -5.7806 18.3033 0.0464 -1.2228 0.7585 -0.0000 0.0000 -11.2222 -9.7405 -5.5863 6.9472 -0.0000 0.0000 18.1472 0.8880 -0.0763 1.0903 0.0000 -0.0000 -10.0018 3.5704 -1.4464 12.9489 -0.0000 0.0000
 1.4933 0.0669 34.6933 -80.2386 3.0400 -178.3989 10.4172 -0.3835 -1.1075 -0.0152 0.2943 -0.6295 -1.7349 2.2529 -0.9139 0.0922 0.5488 0.0225 5.6704 -1.8146 0.1217 -2.8648 -2.1282 2.1661 -0.8944 -0.3359 1.5485 13.5525 -18.3199 -4.3328 17.7002 36.2710 61.9967 27.5050 0.0000 6.1887 -0.9204 -5.3916 -9.7021 3.8252 -8.1141 25.3471 -0.0000 0.0000 33.4679 0.0000 -0.0000 15.6728 -3.1084 -4.6816 -0.8783 -0.5196 -4.2147 28.7840 -3.0962 -1.0291 36.7635 -1.1471 -0.1288 12.8165 -3.5443 -5.0463 0.1769 -4.9624 -3.0300 26.8810 -5.6999 -1.3363 26.3684 -5.9178 -1.4468 27.4554 7.3085 -3.2092 2.4282 10.8948 -23.1864 21.9247 3.4333 1.3037 41.5755 1.2463 0.1524 13.9465 12.8715 49.1348 17.8731 0.6531 -4.9258 1.3190 2.8814 -4.2005 7.2249 -10.1554 15.6340 -2.7637 10.8723 -31.7613 -68.9842 -25.7779 -0.0000 23.6449 0.2760 6.4382 -2.4603 0.5999 0.8924 -33.9137 0.0000 0.0000 -16.3659 -0.0000 0.0000 -13.3918 2.9317 -13.5903 -1.9203 -1.7615 2.5033 -33.4667 -2.3358 0.5576 -26.8475 -0.6921 0.0465 -7.6923 2.4517 -5.2272 -1.1878 -5.9912 -0.4515 -24.2739 -5.1434 1.0768 -23.6342 -3.9628 0.6279 -18.0016 -7.5463 -9.7844 -0.3399 11.0789 17.2611 -26.9853 2.2863 -0.5328 -26.2349 0.4289 -0.0178 -4.7576 -8.6103 42.6124 -12.4899 -3.9912 14.2654 8.4567 2.2699 3.4004 -5.7794 18.3075 0.0433 -1.2215 0.7655 -0.0000 -0.0000 -11.2196 -9.7494 -5.5843 6.9289 -0.0000 -0.0000 18.1548 0.8719 -0.0751 1.0850 -0.0000 0.0000 -9.9950 3.5745 -1.4391 12.9456 -0.0000 0.0000
 1.4936 0.0639 34.6936 -80.2197 3.0320 -178.3964 10.4307 -0.3870 -1.1040 -0.0154 0.2941 -0.6289 -1.7353 2.2530 -0.9125 0.0885 0.5494 0.0246 5.6674 -1.8121 0.1062 -2.8552 -2.1360 2.1788 -0.8893 -0.3349 1.5408 13.5457 -18.3198 -4.3306 17.6607 36.2589 62.0151 27.4268 0.0000 6.2065 -0.9222 -5.3900 -9.7237 3.8257 -8.1097 25.3622 0.0000 0.0000 33.5230 0.0000 0.0000 15.7006 -3.1087 -4.6822 -0.8788 -0.5201 -4.2145 28.8003 -3.1005 -1.0323 36.8238 -1.1489 -0.1293 12.8376 -3.5459 -5.0415 0.1765 -4.9705 -3.0230 26.9016 -5.7075 -1.3400 26.4060 -5.9226 -1.4494 27.4797 7.3098 -3.2089 2.4302 10.9053 -23.1868 21.9439 3.4377 1.3076 41.6414 1.2482 0.1529 13.9688 12.8773 49.1487 17.8888 0.6590 -4.9207 1.3338 2.8840 -4.2037 7.2307 -10.1557 15.6268 -2.7625 10.8704 -31.7549 -68.9774 -25.7771 -0.0000 23.6366 0.2763 6.4348 -2.4641 0.5980 0.8892 -33.9210 0.0000 0.0000 -16.3580 -0.0000 0.0000 -13.3890 2.9308 -13.5924 -1.9209 -1.7623 2.5026 -33.4709 -2.3353 0.5573 -26.8421 -0.6919 0.0465 -7.6895 2.4504 -5.2284 -1.1881 -5.9910 -0.4521 -24.2720 -5.1429 1.0766 -23.6319 -3.9621 0.6277 -17.9985 -7.5453 -9.7848 -0.3386 11.0798 17.2531 -26.9951 2.2855 -0.5325 -26.2256 0.4285 -0.0178 -4.7537 -8.6090 42.6121 -12.4860 -3.9927 14.2665 8.4593 2.2685 3.3986 -5.7761 18.3234 0.0573 -1.2209 0.7632 -0.0000 0.0000 -11.2159 -9.7708 -5.6000 6.9278 -0.0000 0.0000 18.1681 0.8595 -0.0749 1.0847 -0.0000 0.0000 -9.9905 3.5775 -1.4394 12.9448 0.0000 0.0000
